<?xml version="1.0" encoding="UTF-8" standalone="no"?>
<!DOCTYPE svg PUBLIC "-//W3C//DTD SVG 1.1//EN" "http://www.w3.org/Graphics/SVG/1.1/DTD/svg11.dtd">
<svg width="100%" height="100%" viewBox="0 0 3000 3000" version="1.1" xmlns="http://www.w3.org/2000/svg" xmlns:xlink="http://www.w3.org/1999/xlink" xml:space="preserve" xmlns:serif="http://www.serif.com/" style="fill-rule:evenodd;clip-rule:evenodd;stroke-linejoin:round;stroke-miterlimit:2;">
        <path shape-rendering="geometricPrecision" d="M2359.7,821.815C2104.05,481.517 1672.01,328.367 1217.32,450.201C752.697,574.695 453.648,935.611 413.028,1370.39L630.907,1312.01L266.885,1943.18C254.727,1909.25 243.866,1874.55 234.372,1839.12C47.205,1140.61 462.357,421.54 1160.88,234.372C1735.7,80.349 2324.43,334.212 2619.22,818.217L2488.1,1045.33L1019.31,1438.89L1335.68,890.574L1393.83,1107.59L2341.28,853.719L2359.7,821.815ZM641.154,2179.64C896.565,2519.05 1327.32,2671.81 1781.39,2550.15C2246.26,2425.58 2546.15,2064.14 2586.86,1628.94L2369.67,1687.14L2733.29,1057.3C2745.38,1091.07 2756.18,1125.61 2765.63,1160.88C2952.8,1859.39 2537.64,2578.46 1839.12,2765.63C1264.45,2919.61 675.87,2665.92 381.005,2182.16L512.429,1954.53L1976.41,1562.24L1661.64,2107.09L1604.08,1892.28L661.2,2144.92L641.154,2179.64Z"/>
</svg>
