<?xml version="1.0" encoding="UTF-8" standalone="no"?>
<!DOCTYPE svg PUBLIC "-//W3C//DTD SVG 1.1//EN" "http://www.w3.org/Graphics/SVG/1.1/DTD/svg11.dtd">
<svg width="100%" height="100%" viewBox="0 0 720 720" version="1.1" xmlns="http://www.w3.org/2000/svg" xmlns:xlink="http://www.w3.org/1999/xlink" xml:space="preserve" xmlns:serif="http://www.serif.com/" style="fill-rule:evenodd;clip-rule:evenodd;stroke-linejoin:round;stroke-miterlimit:2;">
    <g transform="matrix(0.24,0,0,0.24,0,0)">
        <g transform="matrix(1.195,0,0,1.23355,-292.5,-304.065)">
            <ellipse cx="1500" cy="1462.5" rx="1200" ry="1162.5" style="fill:rgb(17,25,109);"/>
        </g>
        <g transform="matrix(1.195,0,0,1.23355,-292.5,-304.065)">
            <ellipse cx="1500" cy="1462.5" rx="1200" ry="1162.5" style="fill:rgb(20,57,158);"/>
        </g>
        <g transform="matrix(1.16813,0.312998,-0.302621,1.20564,446.763,-640.252)">
            <path d="M1763.05,790.974C1513.76,595.615 1173.73,568.745 870.372,743.885C560.398,922.849 414.962,1239.86 469.501,1560.18L614.861,1476.26L535.642,1772.24C535.677,1772.32 535.712,1772.4 535.748,1772.47L474.774,2000.03C459.5,1977.99 445.01,1955.14 431.364,1931.5C162.305,1465.48 322.215,868.684 788.238,599.625C1171.74,378.212 1643.79,447.294 1948.89,738.405L1945.33,751.693L1945.42,751.717L1902.14,913.247L1902.05,913.222L1898.38,926.899L918.469,1492.65L1040.26,1037.61L1123.85,1182.4L1755.95,817.453L1763.05,790.974ZM789.325,2097.91C1038.27,2292.68 1377.3,2319.51 1680.24,2144.62C1990.38,1965.55 2136.32,1648 2081.77,1327.36L1936.87,1411.02L2051.35,983.293L2051.42,983.427L2076.92,888.278C2092.11,910.228 2106.53,932.974 2120.11,956.5C2389.17,1422.52 2229.26,2019.32 1763.24,2288.38C1379.84,2509.73 907.931,2440.74 602.824,2149.82L653.446,1960.9L1343.35,1562.58L1343.34,1562.57L1630.15,1396.98L1508.84,1849.22L1426.1,1705.91L797.046,2069.09L789.325,2097.91Z" style="fill:white;"/>
        </g>
    </g>
</svg>
